<svg width="407" height="46" viewBox="0 0 407 46" fill="none" xmlns="http://www.w3.org/2000/svg">
<rect x="22" width="362" height="46" rx="14" fill="#314691"/>
<path d="M116.997 30.238C115.082 30.238 113.62 29.7053 112.611 28.64C111.614 27.5747 111.115 26.0617 111.115 24.101C111.115 23.1263 111.268 22.2593 111.574 21.5C111.88 20.7293 112.299 20.0833 112.832 19.562C113.365 19.0293 113.999 18.627 114.736 18.355C115.473 18.083 116.272 17.947 117.133 17.947C117.632 17.947 118.085 17.9867 118.493 18.066C118.901 18.134 119.258 18.219 119.564 18.321C119.87 18.4117 120.125 18.508 120.329 18.61C120.533 18.712 120.68 18.7913 120.771 18.848L120.006 20.99C119.643 20.7973 119.218 20.633 118.731 20.497C118.255 20.361 117.711 20.293 117.099 20.293C116.691 20.293 116.289 20.361 115.892 20.497C115.507 20.633 115.161 20.854 114.855 21.16C114.56 21.4547 114.322 21.84 114.141 22.316C113.96 22.792 113.869 23.37 113.869 24.05C113.869 24.594 113.926 25.104 114.039 25.58C114.164 26.0447 114.356 26.447 114.617 26.787C114.889 27.127 115.24 27.399 115.671 27.603C116.102 27.7957 116.623 27.892 117.235 27.892C117.62 27.892 117.966 27.8693 118.272 27.824C118.578 27.7787 118.85 27.7277 119.088 27.671C119.326 27.603 119.536 27.5293 119.717 27.45C119.898 27.3707 120.063 27.297 120.21 27.229L120.941 29.354C120.567 29.5807 120.04 29.7847 119.36 29.966C118.68 30.1473 117.892 30.238 116.997 30.238ZM129.347 18.219H131.999V30H129.347V25.002H124.893V30H122.241V18.219H124.893V22.724H129.347V18.219ZM134.317 18.219H136.969V30H134.317V18.219ZM147.176 30C147.051 29.592 146.91 29.1727 146.751 28.742C146.604 28.3113 146.456 27.8807 146.309 27.45H141.719C141.572 27.8807 141.419 28.3113 141.26 28.742C141.113 29.1727 140.977 29.592 140.852 30H138.098C138.54 28.7307 138.959 27.5577 139.356 26.481C139.753 25.4043 140.138 24.39 140.512 23.438C140.897 22.486 141.271 21.585 141.634 20.735C142.008 19.8737 142.393 19.035 142.79 18.219H145.323C145.708 19.035 146.088 19.8737 146.462 20.735C146.836 21.585 147.21 22.486 147.584 23.438C147.969 24.39 148.36 25.4043 148.757 26.481C149.154 27.5577 149.573 28.7307 150.015 30H147.176ZM143.997 20.888C143.94 21.058 143.855 21.2903 143.742 21.585C143.629 21.8797 143.498 22.2197 143.351 22.605C143.204 22.9903 143.039 23.4153 142.858 23.88C142.688 24.3447 142.512 24.832 142.331 25.342H145.68C145.499 24.832 145.323 24.3447 145.153 23.88C144.983 23.4153 144.819 22.9903 144.66 22.605C144.513 22.2197 144.382 21.8797 144.269 21.585C144.156 21.2903 144.065 21.058 143.997 20.888ZM158.021 27.977C158.395 27.977 158.701 27.9487 158.939 27.892C159.188 27.824 159.386 27.739 159.534 27.637C159.681 27.5237 159.783 27.3933 159.84 27.246C159.896 27.0987 159.925 26.9343 159.925 26.753C159.925 26.3677 159.743 26.0503 159.381 25.801C159.018 25.5403 158.395 25.2627 157.511 24.968C157.125 24.832 156.74 24.679 156.355 24.509C155.969 24.3277 155.624 24.1067 155.318 23.846C155.012 23.574 154.762 23.251 154.57 22.877C154.377 22.4917 154.281 22.027 154.281 21.483C154.281 20.939 154.383 20.4517 154.587 20.021C154.791 19.579 155.08 19.205 155.454 18.899C155.828 18.593 156.281 18.3607 156.814 18.202C157.346 18.032 157.947 17.947 158.616 17.947C159.409 17.947 160.095 18.032 160.673 18.202C161.251 18.372 161.727 18.559 162.101 18.763L161.336 20.854C161.007 20.684 160.639 20.5367 160.231 20.412C159.834 20.276 159.352 20.208 158.786 20.208C158.151 20.208 157.692 20.2987 157.409 20.48C157.137 20.65 157.001 20.9163 157.001 21.279C157.001 21.4943 157.052 21.6757 157.154 21.823C157.256 21.9703 157.397 22.1063 157.579 22.231C157.771 22.3443 157.987 22.452 158.225 22.554C158.474 22.6447 158.746 22.741 159.041 22.843C159.653 23.0697 160.185 23.2963 160.639 23.523C161.092 23.7383 161.466 23.9933 161.761 24.288C162.067 24.5827 162.293 24.9283 162.441 25.325C162.588 25.7217 162.662 26.2033 162.662 26.77C162.662 27.8693 162.276 28.725 161.506 29.337C160.735 29.9377 159.573 30.238 158.021 30.238C157.499 30.238 157.029 30.204 156.61 30.136C156.19 30.0793 155.816 30.0057 155.488 29.915C155.17 29.8243 154.893 29.728 154.655 29.626C154.428 29.524 154.235 29.4277 154.077 29.337L154.825 27.229C155.176 27.4217 155.607 27.5973 156.117 27.756C156.638 27.9033 157.273 27.977 158.021 27.977ZM171.451 30H164.462V17.8643H171.451V19.9727H167.035V22.6372H171.144V24.7456H167.035V27.875H171.451V30ZM170.148 14.8511C170.148 15.7144 169.699 16.2594 168.803 16.4863L168.72 17.0757H167.276L167.085 15.8555C167.5 15.7891 167.782 15.6867 167.931 15.5483C168.081 15.4045 168.156 15.2301 168.156 15.0254C168.156 14.8483 168.097 14.7127 167.981 14.6187C167.865 14.5246 167.713 14.4775 167.525 14.4775C167.165 14.4775 166.78 14.5412 166.371 14.6685V13.2739C166.537 13.2186 166.764 13.1743 167.052 13.1411C167.345 13.1024 167.605 13.083 167.832 13.083C168.607 13.083 169.185 13.238 169.567 13.5479C169.954 13.8522 170.148 14.2866 170.148 14.8511ZM179.931 27.841C180.055 27.8523 180.197 27.8637 180.356 27.875C180.526 27.875 180.724 27.875 180.951 27.875C182.277 27.875 183.257 27.5407 183.892 26.872C184.538 26.2033 184.861 25.2797 184.861 24.101C184.861 22.8657 184.555 21.9307 183.943 21.296C183.331 20.6613 182.362 20.344 181.036 20.344C180.854 20.344 180.667 20.3497 180.475 20.361C180.282 20.361 180.101 20.3723 179.931 20.395V22.911H182.073V24.866H179.931V27.841ZM187.598 24.101C187.598 25.121 187.439 26.0107 187.122 26.77C186.804 27.5293 186.351 28.1583 185.762 28.657C185.184 29.1557 184.475 29.5297 183.637 29.779C182.798 30.0283 181.857 30.153 180.815 30.153C180.339 30.153 179.783 30.1303 179.149 30.085C178.514 30.051 177.891 29.9717 177.279 29.847V24.866H175.902V22.911H177.279V18.372C177.891 18.2587 178.525 18.185 179.183 18.151C179.851 18.1057 180.424 18.083 180.9 18.083C181.908 18.083 182.821 18.1963 183.637 18.423C184.464 18.6497 185.172 19.0067 185.762 19.494C186.351 19.9813 186.804 20.6047 187.122 21.364C187.439 22.1233 187.598 23.0357 187.598 24.101ZM196.557 30H189.568V17.8643H196.557V19.9727H192.141V22.6372H196.25V24.7456H192.141V27.875H196.557V30ZM197.827 13.6475C197.827 14.2783 197.481 14.6629 196.789 14.8013L196.74 15.3076H195.685L195.602 14.3447C195.907 14.3337 196.15 14.2866 196.333 14.2036C196.516 14.1151 196.607 13.9906 196.607 13.8301C196.607 13.7139 196.554 13.6143 196.449 13.5312C196.35 13.4482 196.181 13.4067 195.943 13.4067C195.749 13.4067 195.55 13.4344 195.345 13.4897V12.4355C195.467 12.4023 195.721 12.3857 196.109 12.3857C196.629 12.3857 197.044 12.4854 197.354 12.6846C197.669 12.8838 197.827 13.2048 197.827 13.6475ZM196.167 16.8931H194.822C194.202 16.478 193.619 16.0187 193.071 15.5151C192.44 16.0741 191.856 16.5334 191.319 16.8931H189.975V16.6689C190.594 15.9495 191.189 15.1748 191.759 14.3447H194.374C194.667 14.7764 194.999 15.2301 195.37 15.7061C195.746 16.1764 196.012 16.4974 196.167 16.6689V16.8931ZM210.936 18.219V20.48H207.383V30H204.731V20.48H201.178V18.219H210.936ZM219.338 18.219H221.99V30H219.338V25.002H214.884V30H212.232V18.219H214.884V22.724H219.338V18.219ZM224.308 30V18.219H232.264V20.446H226.96V22.758H231.669V24.934H226.96V27.773H232.655V30H224.308ZM230.955 16.213L230.02 17.335L228.32 16.026L226.62 17.335L225.651 16.213L228.32 13.884L230.955 16.213ZM237.338 18.219C237.542 18.593 237.774 19.0577 238.035 19.613C238.307 20.157 238.585 20.752 238.868 21.398C239.163 22.0327 239.452 22.6843 239.735 23.353C240.018 24.0217 240.285 24.6507 240.534 25.24C240.783 24.6507 241.05 24.0217 241.333 23.353C241.616 22.6843 241.9 22.0327 242.183 21.398C242.478 20.752 242.755 20.157 243.016 19.613C243.288 19.0577 243.526 18.593 243.73 18.219H246.144C246.257 19.001 246.359 19.8793 246.45 20.854C246.552 21.8173 246.637 22.826 246.705 23.88C246.784 24.9227 246.852 25.971 246.909 27.025C246.977 28.079 247.034 29.0707 247.079 30H244.495C244.461 28.8553 244.416 27.6087 244.359 26.26C244.302 24.9113 244.217 23.5513 244.104 22.18C243.9 22.656 243.673 23.183 243.424 23.761C243.175 24.339 242.925 24.917 242.676 25.495C242.438 26.073 242.206 26.6283 241.979 27.161C241.752 27.6823 241.56 28.13 241.401 28.504H239.548C239.389 28.13 239.197 27.6823 238.97 27.161C238.743 26.6283 238.505 26.073 238.256 25.495C238.018 24.917 237.774 24.339 237.525 23.761C237.276 23.183 237.049 22.656 236.845 22.18C236.732 23.5513 236.647 24.9113 236.59 26.26C236.533 27.6087 236.488 28.8553 236.454 30H233.87C233.915 29.0707 233.966 28.079 234.023 27.025C234.091 25.971 234.159 24.9227 234.227 23.88C234.306 22.826 234.391 21.8173 234.482 20.854C234.584 19.8793 234.692 19.001 234.805 18.219H237.338ZM260.606 27.722V30H252.735V18.219H255.387V27.722H260.606ZM266.347 30.238C265.52 30.238 264.806 30.1247 264.205 29.898C263.604 29.66 263.106 29.337 262.709 28.929C262.324 28.5097 262.035 28.0167 261.842 27.45C261.661 26.872 261.57 26.2373 261.57 25.546V18.219H264.222V25.325C264.222 25.801 264.273 26.209 264.375 26.549C264.488 26.8777 264.636 27.1497 264.817 27.365C265.01 27.569 265.236 27.7163 265.497 27.807C265.769 27.8977 266.064 27.943 266.381 27.943C267.027 27.943 267.548 27.7447 267.945 27.348C268.353 26.9513 268.557 26.277 268.557 25.325V18.219H269.526C270.059 18.219 270.427 18.1113 270.631 17.896C270.835 17.6807 270.937 17.4313 270.937 17.148C270.937 17.012 270.931 16.8873 270.92 16.774C270.92 16.6607 270.914 16.5303 270.903 16.383H273.181C273.204 16.5417 273.221 16.6947 273.232 16.842C273.243 16.9893 273.249 17.1423 273.249 17.301C273.249 17.5617 273.221 17.8223 273.164 18.083C273.107 18.3437 273 18.593 272.841 18.831C272.694 19.0577 272.49 19.2617 272.229 19.443C271.968 19.613 271.628 19.7433 271.209 19.834V25.546C271.209 26.2373 271.113 26.872 270.92 27.45C270.727 28.028 270.433 28.5267 270.036 28.946C269.639 29.354 269.135 29.6713 268.523 29.898C267.911 30.1247 267.186 30.238 266.347 30.238ZM285.215 23.9155C285.215 25.9243 284.717 27.4683 283.72 28.5474C282.724 29.6265 281.297 30.166 279.437 30.166C277.578 30.166 276.15 29.6265 275.154 28.5474C274.158 27.4683 273.66 25.9188 273.66 23.8989C273.66 21.8901 274.161 20.3517 275.162 19.2837C276.164 18.2101 277.6 17.6733 279.47 17.6733C281.385 17.6733 282.835 18.235 283.82 19.3584C284.335 19.0208 284.592 18.2627 284.592 17.084H287.091L287.207 17.2666C287.008 18.2461 286.712 19.0153 286.319 19.5742C285.926 20.1276 285.389 20.5426 284.708 20.8193C285.046 21.6992 285.215 22.7313 285.215 23.9155ZM276.358 23.9155C276.358 25.2713 276.615 26.2923 277.13 26.9785C277.644 27.6647 278.414 28.0078 279.437 28.0078C281.49 28.0078 282.517 26.6437 282.517 23.9155C282.517 21.1818 281.496 19.8149 279.454 19.8149C278.43 19.8149 277.658 20.1608 277.138 20.8525C276.618 21.5387 276.358 22.5597 276.358 23.9155ZM278.076 32.3325C278.076 31.5024 278.535 31.0874 279.454 31.0874C280.373 31.0874 280.832 31.5024 280.832 32.3325C280.832 32.7254 280.716 33.0298 280.483 33.2456C280.251 33.4614 279.908 33.5693 279.454 33.5693C278.535 33.5693 278.076 33.1571 278.076 32.3325ZM296.39 18.219V20.48H292.837V30H290.185V20.48H286.632V18.219H296.39Z" fill="white"/>
</svg>
