<svg width="407" height="46" viewBox="0 0 407 46" fill="none" xmlns="http://www.w3.org/2000/svg">
<rect x="22" width="362" height="46" rx="14" fill="#5D5FEF"/>
<path d="M168.29 29.238C166.374 29.238 164.912 28.7053 163.904 27.64C162.906 26.5747 162.408 25.0617 162.408 23.101C162.408 22.1263 162.561 21.2593 162.867 20.5C163.173 19.7293 163.592 19.0833 164.125 18.562C164.657 18.0293 165.292 17.627 166.029 17.355C166.765 17.083 167.564 16.947 168.426 16.947C168.924 16.947 169.378 16.9867 169.786 17.066C170.194 17.134 170.551 17.219 170.857 17.321C171.163 17.4117 171.418 17.508 171.622 17.61C171.826 17.712 171.973 17.7913 172.064 17.848L171.299 19.99C170.936 19.7973 170.511 19.633 170.024 19.497C169.548 19.361 169.004 19.293 168.392 19.293C167.984 19.293 167.581 19.361 167.185 19.497C166.799 19.633 166.454 19.854 166.148 20.16C165.853 20.4547 165.615 20.84 165.434 21.316C165.252 21.792 165.162 22.37 165.162 23.05C165.162 23.594 165.218 24.104 165.332 24.58C165.456 25.0447 165.649 25.447 165.91 25.787C166.182 26.127 166.533 26.399 166.964 26.603C167.394 26.7957 167.916 26.892 168.528 26.892C168.913 26.892 169.259 26.8693 169.565 26.824C169.871 26.7787 170.143 26.7277 170.381 26.671C170.619 26.603 170.828 26.5293 171.01 26.45C171.191 26.3707 171.355 26.297 171.503 26.229L172.234 28.354C171.86 28.5807 171.333 28.7847 170.653 28.966C169.973 29.1473 169.185 29.238 168.29 29.238ZM180.639 17.219H183.291V29H180.639V24.002H176.185V29H173.533V17.219H176.185V21.724H180.639V17.219ZM196.829 23.101C196.829 24.1097 196.676 24.9993 196.37 25.77C196.076 26.5293 195.668 27.1697 195.146 27.691C194.625 28.201 194.002 28.5863 193.276 28.847C192.562 29.1077 191.792 29.238 190.964 29.238C190.16 29.238 189.4 29.1077 188.686 28.847C187.972 28.5863 187.349 28.201 186.816 27.691C186.284 27.1697 185.864 26.5293 185.558 25.77C185.252 24.9993 185.099 24.1097 185.099 23.101C185.099 22.0923 185.258 21.2083 185.575 20.449C185.893 19.6783 186.318 19.0323 186.85 18.511C187.394 17.9897 188.018 17.5987 188.72 17.338C189.434 17.0773 190.182 16.947 190.964 16.947C192.166 16.947 193.231 17.2303 194.16 17.797C194.262 17.559 194.33 17.3097 194.364 17.049C194.41 16.777 194.432 16.4993 194.432 16.216C194.432 16.08 194.427 15.944 194.415 15.808C194.415 15.672 194.41 15.5303 194.398 15.383H196.744C196.767 15.5417 196.784 15.6947 196.795 15.842C196.807 15.9893 196.812 16.1423 196.812 16.301C196.812 16.8337 196.722 17.338 196.54 17.814C196.37 18.2787 196.07 18.715 195.639 19.123C196.013 19.633 196.302 20.2167 196.506 20.874C196.722 21.5313 196.829 22.2737 196.829 23.101ZM187.836 23.101C187.836 23.679 187.904 24.2003 188.04 24.665C188.188 25.1297 188.392 25.532 188.652 25.872C188.924 26.2007 189.253 26.4557 189.638 26.637C190.024 26.8183 190.466 26.909 190.964 26.909C191.452 26.909 191.888 26.8183 192.273 26.637C192.67 26.4557 192.999 26.2007 193.259 25.872C193.531 25.532 193.735 25.1297 193.871 24.665C194.019 24.2003 194.092 23.679 194.092 23.101C194.092 22.523 194.019 22.0017 193.871 21.537C193.735 21.061 193.531 20.6587 193.259 20.33C192.999 19.99 192.67 19.7293 192.273 19.548C191.888 19.3667 191.452 19.276 190.964 19.276C190.466 19.276 190.024 19.3723 189.638 19.565C189.253 19.7463 188.924 20.007 188.652 20.347C188.392 20.6757 188.188 21.078 188.04 21.554C187.904 22.0187 187.836 22.5343 187.836 23.101ZM198.632 17.219H201.284V29H198.632V17.219ZM216.017 17.219V19.48H212.464V29H209.812V19.48H206.259V17.219H216.017ZM217.313 17.219H219.965V29H217.313V17.219ZM229.441 29H222.452V16.8643H229.441V18.9727H225.025V21.6372H229.134V23.7456H225.025V26.875H229.441V29ZM229.051 15.8931H227.706C227.086 15.478 226.502 15.0187 225.955 14.5151C225.324 15.0741 224.74 15.5334 224.203 15.8931H222.858V15.6689C223.478 14.9495 224.073 14.1748 224.643 13.3447H227.258C227.551 13.7764 227.883 14.2301 228.254 14.7061C228.63 15.1764 228.896 15.4974 229.051 15.6689V15.8931ZM228.312 14.0586C228.782 13.555 229.164 12.9989 229.458 12.3901H231.458V12.5645C231.087 13.057 230.459 13.627 229.574 14.2744H228.312V14.0586ZM234.942 17.083C236.698 17.083 238.047 17.3947 238.988 18.018C239.928 18.63 240.399 19.6387 240.399 21.044C240.399 22.4607 239.923 23.4863 238.971 24.121C238.019 24.7443 236.659 25.056 234.891 25.056H234.058V29H231.406V17.389C231.984 17.2757 232.596 17.1963 233.242 17.151C233.888 17.1057 234.454 17.083 234.942 17.083ZM235.112 19.344C234.919 19.344 234.726 19.3497 234.534 19.361C234.352 19.3723 234.194 19.3837 234.058 19.395V22.795H234.891C235.809 22.795 236.5 22.6703 236.965 22.421C237.429 22.1717 237.662 21.707 237.662 21.027C237.662 20.6983 237.599 20.4263 237.475 20.211C237.361 19.9957 237.191 19.8257 236.965 19.701C236.749 19.565 236.483 19.4743 236.166 19.429C235.848 19.3723 235.497 19.344 235.112 19.344ZM244.369 20.262C244.369 21.18 244.335 22.0357 244.267 22.829C244.199 23.6223 244.108 24.427 243.995 25.243H242.057C241.944 24.427 241.847 23.6223 241.768 22.829C241.7 22.0357 241.666 21.18 241.666 20.262V17.219H244.369V20.262ZM244.59 27.657C244.59 28.1557 244.426 28.541 244.097 28.813C243.78 29.085 243.417 29.221 243.009 29.221C242.601 29.221 242.233 29.085 241.904 28.813C241.587 28.541 241.428 28.1557 241.428 27.657C241.428 27.1583 241.587 26.773 241.904 26.501C242.233 26.229 242.601 26.093 243.009 26.093C243.417 26.093 243.78 26.229 244.097 26.501C244.426 26.773 244.59 27.1583 244.59 27.657Z" fill="white"/>
</svg>
