<svg width="362" height="46" viewBox="0 0 362 46" fill="none" xmlns="http://www.w3.org/2000/svg">
<rect width="362" height="46" rx="14" fill="#EF5DA8"/>
<path d="M67.3713 17.219H70.0233V29H67.3713V17.219ZM80.2472 29C79.4879 27.6513 78.6662 26.3197 77.7822 25.005C76.8982 23.6903 75.9576 22.4493 74.9602 21.282V29H72.3422V17.219H74.5012C74.8752 17.593 75.2889 18.052 75.7422 18.596C76.1956 19.14 76.6546 19.7237 77.1192 20.347C77.5952 20.959 78.0656 21.5993 78.5302 22.268C78.9949 22.9253 79.4312 23.56 79.8392 24.172V17.219H82.4742V29H80.2472ZM88.7109 29.153C88.0649 29.153 87.4189 29.1303 86.7729 29.085C86.1382 29.051 85.4752 28.9603 84.7839 28.813V17.389C85.3279 17.287 85.9229 17.2133 86.5689 17.168C87.2149 17.1113 87.8155 17.083 88.3709 17.083C89.1189 17.083 89.8045 17.1397 90.4279 17.253C91.0625 17.355 91.6065 17.5363 92.0599 17.797C92.5132 18.0577 92.8645 18.4033 93.1139 18.834C93.3745 19.2533 93.5049 19.7747 93.5049 20.398C93.5049 21.3387 93.0515 22.081 92.1449 22.625C92.8929 22.9083 93.4029 23.2937 93.6749 23.781C93.9469 24.2683 94.0829 24.818 94.0829 25.43C94.0829 26.6653 93.6295 27.5947 92.7229 28.218C91.8275 28.8413 90.4902 29.153 88.7109 29.153ZM87.3679 23.866V26.909C87.5605 26.9317 87.7702 26.9487 87.9969 26.96C88.2235 26.9713 88.4729 26.977 88.7449 26.977C89.5382 26.977 90.1785 26.8637 90.6659 26.637C91.1532 26.4103 91.3969 25.991 91.3969 25.379C91.3969 24.835 91.1929 24.4497 90.7849 24.223C90.3769 23.985 89.7932 23.866 89.0339 23.866H87.3679ZM87.3679 21.843H88.6599C89.4759 21.843 90.0595 21.741 90.4109 21.537C90.7622 21.3217 90.9379 20.9817 90.9379 20.517C90.9379 20.041 90.7565 19.7067 90.3939 19.514C90.0312 19.3213 89.4985 19.225 88.7959 19.225C88.5692 19.225 88.3255 19.2307 88.0649 19.242C87.8042 19.242 87.5719 19.2533 87.3679 19.276V21.843ZM98.0247 23.101C98.0247 23.679 98.0927 24.2003 98.2287 24.665C98.3761 25.1297 98.5801 25.532 98.8407 25.872C99.1127 26.2007 99.4414 26.4557 99.8267 26.637C100.212 26.8183 100.654 26.909 101.153 26.909C101.64 26.909 102.076 26.8183 102.462 26.637C102.858 26.4557 103.187 26.2007 103.448 25.872C103.72 25.532 103.924 25.1297 104.06 24.665C104.207 24.2003 104.281 23.679 104.281 23.101C104.281 22.523 104.207 22.0017 104.06 21.537C103.924 21.061 103.72 20.6587 103.448 20.33C103.187 19.99 102.858 19.7293 102.462 19.548C102.076 19.3667 101.64 19.276 101.153 19.276C100.654 19.276 100.212 19.3723 99.8267 19.565C99.4414 19.7463 99.1127 20.007 98.8407 20.347C98.5801 20.6757 98.3761 21.078 98.2287 21.554C98.0927 22.0187 98.0247 22.5343 98.0247 23.101ZM107.018 23.101C107.018 24.1097 106.865 24.9993 106.559 25.77C106.264 26.5293 105.856 27.1697 105.335 27.691C104.813 28.201 104.19 28.5863 103.465 28.847C102.751 29.1077 101.98 29.238 101.153 29.238C100.348 29.238 99.5887 29.1077 98.8747 28.847C98.1607 28.5863 97.5374 28.201 97.0047 27.691C96.4721 27.1697 96.0527 26.5293 95.7467 25.77C95.4407 24.9993 95.2877 24.1097 95.2877 23.101C95.2877 22.0923 95.4464 21.2083 95.7637 20.449C96.0811 19.6783 96.5061 19.0323 97.0387 18.511C97.5827 17.9897 98.2061 17.5987 98.9087 17.338C99.6227 17.0773 100.371 16.947 101.153 16.947C101.957 16.947 102.717 17.0773 103.431 17.338C104.145 17.5987 104.768 17.9897 105.301 18.511C105.833 19.0323 106.253 19.6783 106.559 20.449C106.865 21.2083 107.018 22.0923 107.018 23.101ZM114.939 29C114.61 28.3427 114.248 27.6797 113.851 27.011C113.466 26.331 113.018 25.6397 112.508 24.937C112.349 25.141 112.145 25.4243 111.896 25.787C111.658 26.1497 111.414 26.535 111.165 26.943C110.927 27.351 110.7 27.742 110.485 28.116C110.27 28.49 110.111 28.7847 110.009 29H106.983C107.482 28.082 108.06 27.1187 108.717 26.11C109.386 25.1013 110.128 24.0303 110.944 22.897L107.153 17.219H110.366L112.661 20.891L114.905 17.219H117.931L114.191 22.931C115.143 24.1663 115.942 25.311 116.588 26.365C117.234 27.4077 117.744 28.286 118.118 29H114.939ZM122.913 29V17.219H130.801V19.446H125.565V21.911H130.223V24.138H125.565V29H122.913ZM139.341 29C139.216 28.592 139.075 28.1727 138.916 27.742C138.769 27.3113 138.621 26.8807 138.474 26.45H133.884C133.737 26.8807 133.584 27.3113 133.425 27.742C133.278 28.1727 133.142 28.592 133.017 29H130.263C130.705 27.7307 131.124 26.5577 131.521 25.481C131.918 24.4043 132.303 23.39 132.677 22.438C133.062 21.486 133.436 20.585 133.799 19.735C134.173 18.8737 134.558 18.035 134.955 17.219H137.488C137.873 18.035 138.253 18.8737 138.627 19.735C139.001 20.585 139.375 21.486 139.749 22.438C140.134 23.39 140.525 24.4043 140.922 25.481C141.319 26.5577 141.738 27.7307 142.18 29H139.341ZM136.162 19.888C136.105 20.058 136.02 20.2903 135.907 20.585C135.794 20.8797 135.663 21.2197 135.516 21.605C135.369 21.9903 135.204 22.4153 135.023 22.88C134.853 23.3447 134.677 23.832 134.496 24.342H137.845C137.664 23.832 137.488 23.3447 137.318 22.88C137.148 22.4153 136.984 21.9903 136.825 21.605C136.678 21.2197 136.547 20.8797 136.434 20.585C136.321 20.2903 136.23 20.058 136.162 19.888ZM151.202 29C150.442 27.6513 149.621 26.3197 148.737 25.005C147.853 23.6903 146.912 22.4493 145.915 21.282V29H143.297V17.219H145.456C145.83 17.593 146.243 18.052 146.697 18.596C147.15 19.14 147.609 19.7237 148.074 20.347C148.55 20.959 149.02 21.5993 149.485 22.268C149.949 22.9253 150.386 23.56 150.794 24.172V17.219H153.429V29H151.202ZM159.274 17.083C161.031 17.083 162.38 17.3947 163.32 18.018C164.261 18.63 164.731 19.6387 164.731 21.044C164.731 22.4607 164.255 23.4863 163.303 24.121C162.351 24.7443 160.991 25.056 159.223 25.056H158.39V29H155.738V17.389C156.316 17.2757 156.928 17.1963 157.574 17.151C158.22 17.1057 158.787 17.083 159.274 17.083ZM159.444 19.344C159.252 19.344 159.059 19.3497 158.866 19.361C158.685 19.3723 158.526 19.3837 158.39 19.395V22.795H159.223C160.141 22.795 160.833 22.6703 161.297 22.421C161.762 22.1717 161.994 21.707 161.994 21.027C161.994 20.6983 161.932 20.4263 161.807 20.211C161.694 19.9957 161.524 19.8257 161.297 19.701C161.082 19.565 160.816 19.4743 160.498 19.429C160.181 19.3723 159.83 19.344 159.444 19.344ZM172.997 29C172.872 28.592 172.73 28.1727 172.572 27.742C172.424 27.3113 172.277 26.8807 172.13 26.45H167.54C167.392 26.8807 167.239 27.3113 167.081 27.742C166.933 28.1727 166.797 28.592 166.673 29H163.919C164.361 27.7307 164.78 26.5577 165.177 25.481C165.573 24.4043 165.959 23.39 166.333 22.438C166.718 21.486 167.092 20.585 167.455 19.735C167.829 18.8737 168.214 18.035 168.611 17.219H171.144C171.529 18.035 171.909 18.8737 172.283 19.735C172.657 20.585 173.031 21.486 173.405 22.438C173.79 23.39 174.181 24.4043 174.578 25.481C174.974 26.5577 175.394 27.7307 175.836 29H172.997ZM169.818 19.888C169.761 20.058 169.676 20.2903 169.563 20.585C169.449 20.8797 169.319 21.2197 169.172 21.605C169.024 21.9903 168.86 22.4153 168.679 22.88C168.509 23.3447 168.333 23.832 168.152 24.342H171.501C171.319 23.832 171.144 23.3447 170.974 22.88C170.804 22.4153 170.639 21.9903 170.481 21.605C170.333 21.2197 170.203 20.8797 170.09 20.585C169.976 20.2903 169.886 20.058 169.818 19.888ZM182.267 19.259C181.032 19.259 180.136 19.6047 179.581 20.296C179.037 20.976 178.765 21.911 178.765 23.101C178.765 23.679 178.833 24.206 178.969 24.682C179.105 25.1467 179.309 25.549 179.581 25.889C179.853 26.229 180.193 26.4953 180.601 26.688C181.009 26.8693 181.485 26.96 182.029 26.96C182.324 26.96 182.573 26.9543 182.777 26.943C182.992 26.9317 183.179 26.909 183.338 26.875V22.778H185.99V28.609C185.673 28.7337 185.163 28.864 184.46 29C183.757 29.1473 182.89 29.221 181.859 29.221C180.975 29.221 180.17 29.085 179.445 28.813C178.731 28.541 178.119 28.1443 177.609 27.623C177.099 27.1017 176.702 26.4613 176.419 25.702C176.147 24.9427 176.011 24.0757 176.011 23.101C176.011 22.115 176.164 21.2423 176.47 20.483C176.776 19.7237 177.195 19.0833 177.728 18.562C178.261 18.0293 178.884 17.627 179.598 17.355C180.323 17.083 181.094 16.947 181.91 16.947C182.465 16.947 182.964 16.9867 183.406 17.066C183.859 17.134 184.245 17.219 184.562 17.321C184.891 17.4117 185.157 17.508 185.361 17.61C185.576 17.712 185.729 17.7913 185.82 17.848L185.055 19.973C184.692 19.7803 184.273 19.616 183.797 19.48C183.332 19.3327 182.822 19.259 182.267 19.259ZM188.05 29V17.219H196.006V19.446H190.702V21.758H195.411V23.934H190.702V26.773H196.397V29H188.05ZM204.466 26.841C204.591 26.8523 204.732 26.8637 204.891 26.875C205.061 26.875 205.259 26.875 205.486 26.875C206.812 26.875 207.792 26.5407 208.427 25.872C209.073 25.2033 209.396 24.2797 209.396 23.101C209.396 21.8657 209.09 20.9307 208.478 20.296C207.866 19.6613 206.897 19.344 205.571 19.344C205.39 19.344 205.203 19.3497 205.01 19.361C204.817 19.361 204.636 19.3723 204.466 19.395V21.911H206.608V23.866H204.466V26.841ZM212.133 23.101C212.133 24.121 211.974 25.0107 211.657 25.77C211.34 26.5293 210.886 27.1583 210.297 27.657C209.719 28.1557 209.011 28.5297 208.172 28.779C207.333 29.0283 206.393 29.153 205.35 29.153C204.874 29.153 204.319 29.1303 203.684 29.085C203.049 29.051 202.426 28.9717 201.814 28.847V23.866H200.437V21.911H201.814V17.372C202.426 17.2587 203.061 17.185 203.718 17.151C204.387 17.1057 204.959 17.083 205.435 17.083C206.444 17.083 207.356 17.1963 208.172 17.423C208.999 17.6497 209.708 18.0067 210.297 18.494C210.886 18.9813 211.34 19.6047 211.657 20.364C211.974 21.1233 212.133 22.0357 212.133 23.101ZM220.651 11.388C221.172 11.388 221.586 11.49 221.892 11.694C222.209 11.8867 222.368 12.204 222.368 12.646C222.368 12.9633 222.277 13.2183 222.096 13.411C221.915 13.6037 221.66 13.734 221.331 13.802L221.28 14.312H220.226L220.141 13.343C220.538 13.3203 220.804 13.258 220.94 13.156C221.076 13.054 221.144 12.9463 221.144 12.833C221.144 12.7083 221.093 12.6063 220.991 12.527C220.889 12.4477 220.719 12.408 220.481 12.408C220.368 12.408 220.254 12.4193 220.141 12.442C220.028 12.4533 219.943 12.4703 219.886 12.493V11.439C220.011 11.405 220.266 11.388 220.651 11.388ZM218.917 13.343C219.178 13.7283 219.467 14.1307 219.784 14.55C220.113 14.9693 220.419 15.3433 220.702 15.672V15.893H219.359C219.076 15.7003 218.787 15.4907 218.492 15.264C218.197 15.026 217.903 14.7767 217.608 14.516C217.313 14.7767 217.019 15.026 216.724 15.264C216.429 15.4907 216.14 15.7003 215.857 15.893H214.514V15.672C214.797 15.3433 215.098 14.9693 215.415 14.55C215.744 14.1307 216.038 13.7283 216.299 13.343H218.917ZM221.093 29H214.106V16.862H221.093V18.97H216.673V21.639H220.787V23.747H216.673V26.875H221.093V29ZM229.556 26.841C229.68 26.8523 229.822 26.8637 229.981 26.875C230.151 26.875 230.349 26.875 230.576 26.875C231.902 26.875 232.882 26.5407 233.517 25.872C234.163 25.2033 234.486 24.2797 234.486 23.101C234.486 21.8657 234.18 20.9307 233.568 20.296C232.956 19.6613 231.987 19.344 230.661 19.344C230.479 19.344 230.292 19.3497 230.1 19.361C229.907 19.361 229.726 19.3723 229.556 19.395V21.911H231.698V23.866H229.556V26.841ZM237.223 23.101C237.223 24.121 237.064 25.0107 236.747 25.77C236.429 26.5293 235.976 27.1583 235.387 27.657C234.809 28.1557 234.1 28.5297 233.262 28.779C232.423 29.0283 231.482 29.153 230.44 29.153C229.964 29.153 229.408 29.1303 228.774 29.085C228.139 29.051 227.516 28.9717 226.904 28.847V23.866H225.527V21.911H226.904V17.372C227.516 17.2587 228.15 17.185 228.808 17.151C229.476 17.1057 230.049 17.083 230.525 17.083C231.533 17.083 232.446 17.1963 233.262 17.423C234.089 17.6497 234.797 18.0067 235.387 18.494C235.976 18.9813 236.429 19.6047 236.747 20.364C237.064 21.1233 237.223 22.0357 237.223 23.101ZM247.406 11.388C247.928 11.388 248.341 11.49 248.647 11.694C248.965 11.8867 249.123 12.204 249.123 12.646C249.123 12.9633 249.033 13.2183 248.851 13.411C248.67 13.6037 248.415 13.734 248.086 13.802L248.035 14.312H246.981L246.896 13.343C247.293 13.3203 247.559 13.258 247.695 13.156C247.831 13.054 247.899 12.9463 247.899 12.833C247.899 12.7083 247.848 12.6063 247.746 12.527C247.644 12.4477 247.474 12.408 247.236 12.408C247.123 12.408 247.01 12.4193 246.896 12.442C246.783 12.4533 246.698 12.4703 246.641 12.493V11.439C246.766 11.405 247.021 11.388 247.406 11.388ZM245.672 13.343C245.933 13.7283 246.222 14.1307 246.539 14.55C246.868 14.9693 247.174 15.3433 247.457 15.672V15.893H246.114C245.831 15.7003 245.542 15.4907 245.247 15.264C244.953 15.026 244.658 14.7767 244.363 14.516C244.069 14.7767 243.774 15.026 243.479 15.264C243.185 15.4907 242.896 15.7003 242.612 15.893H241.269V15.672C241.553 15.3433 241.853 14.9693 242.17 14.55C242.499 14.1307 242.794 13.7283 243.054 13.343H245.672ZM250.211 22.914C250.211 24.172 250.002 25.2713 249.582 26.212C249.174 27.1413 248.545 27.8667 247.695 28.388C246.845 28.9093 245.757 29.17 244.431 29.17C243.117 29.17 242.029 28.9093 241.167 28.388C240.317 27.8667 239.683 27.1357 239.263 26.195C238.855 25.2543 238.651 24.155 238.651 22.897C238.651 21.639 238.855 20.5453 239.263 19.616C239.683 18.6867 240.317 17.967 241.167 17.457C242.029 16.9357 243.122 16.675 244.448 16.675C245.763 16.675 246.845 16.9357 247.695 17.457C248.545 17.967 249.174 18.6923 249.582 19.633C250.002 20.5623 250.211 21.656 250.211 22.914ZM241.354 22.914C241.354 24.1833 241.598 25.1863 242.085 25.923C242.573 26.6483 243.355 27.011 244.431 27.011C245.531 27.011 246.318 26.6483 246.794 25.923C247.27 25.1863 247.508 24.1833 247.508 22.914C247.508 21.6333 247.27 20.6303 246.794 19.905C246.318 19.1797 245.536 18.817 244.448 18.817C243.36 18.817 242.573 19.1797 242.085 19.905C241.598 20.6303 241.354 21.6333 241.354 22.914ZM252.148 17.219H254.8V29H252.148V17.219ZM263.022 23.101C263.022 23.679 263.09 24.2003 263.226 24.665C263.373 25.1297 263.577 25.532 263.838 25.872C264.11 26.2007 264.438 26.4557 264.824 26.637C265.209 26.8183 265.651 26.909 266.15 26.909C266.637 26.909 267.073 26.8183 267.459 26.637C267.855 26.4557 268.184 26.2007 268.445 25.872C268.717 25.532 268.921 25.1297 269.057 24.665C269.204 24.2003 269.278 23.679 269.278 23.101C269.278 22.523 269.204 22.0017 269.057 21.537C268.921 21.061 268.717 20.6587 268.445 20.33C268.184 19.99 267.855 19.7293 267.459 19.548C267.073 19.3667 266.637 19.276 266.15 19.276C265.651 19.276 265.209 19.3723 264.824 19.565C264.438 19.7463 264.11 20.007 263.838 20.347C263.577 20.6757 263.373 21.078 263.226 21.554C263.09 22.0187 263.022 22.5343 263.022 23.101ZM272.015 23.101C272.015 23.9283 271.913 24.6763 271.709 25.345C271.505 26.0023 271.216 26.5803 270.842 27.079C270.479 27.5777 270.043 27.9913 269.533 28.32C269.023 28.6487 268.462 28.8867 267.85 29.034C267.906 29.2607 268.031 29.442 268.224 29.578C268.416 29.7253 268.66 29.8443 268.955 29.935C269.249 30.0257 269.589 30.0937 269.975 30.139C270.371 30.1843 270.796 30.224 271.25 30.258L270.706 32.196C269.822 32.162 269.062 32.0713 268.428 31.924C267.804 31.788 267.272 31.5953 266.83 31.346C266.399 31.0967 266.053 30.7907 265.793 30.428C265.543 30.0653 265.351 29.646 265.215 29.17C264.512 29.0793 263.86 28.8867 263.26 28.592C262.659 28.286 262.138 27.878 261.696 27.368C261.254 26.858 260.908 26.246 260.659 25.532C260.409 24.818 260.285 24.0077 260.285 23.101C260.285 22.0923 260.443 21.2083 260.761 20.449C261.078 19.6783 261.503 19.0323 262.036 18.511C262.58 17.9897 263.203 17.5987 263.906 17.338C264.62 17.0773 265.368 16.947 266.15 16.947C266.954 16.947 267.714 17.0773 268.428 17.338C269.142 17.5987 269.765 17.9897 270.298 18.511C270.83 19.0323 271.25 19.6783 271.556 20.449C271.862 21.2083 272.015 22.0923 272.015 23.101ZM278.424 29.238C277.597 29.238 276.883 29.1247 276.282 28.898C275.682 28.66 275.183 28.337 274.786 27.929C274.401 27.5097 274.112 27.0167 273.919 26.45C273.738 25.872 273.647 25.2373 273.647 24.546V17.219H276.299V24.325C276.299 24.801 276.35 25.209 276.452 25.549C276.566 25.8777 276.713 26.1497 276.894 26.365C277.087 26.569 277.314 26.7163 277.574 26.807C277.846 26.8977 278.141 26.943 278.458 26.943C279.104 26.943 279.626 26.7447 280.022 26.348C280.43 25.9513 280.634 25.277 280.634 24.325V17.219H283.286V24.546C283.286 25.2373 283.19 25.872 282.997 26.45C282.805 27.028 282.51 27.5267 282.113 27.946C281.717 28.354 281.212 28.6713 280.6 28.898C279.988 29.1247 279.263 29.238 278.424 29.238ZM292.985 29C292.86 28.592 292.718 28.1727 292.56 27.742C292.412 27.3113 292.265 26.8807 292.118 26.45H287.528C287.38 26.8807 287.227 27.3113 287.069 27.742C286.921 28.1727 286.785 28.592 286.661 29H283.907C284.349 27.7307 284.768 26.5577 285.165 25.481C285.561 24.4043 285.947 23.39 286.321 22.438C286.706 21.486 287.08 20.585 287.443 19.735C287.817 18.8737 288.202 18.035 288.599 17.219H291.132C291.517 18.035 291.897 18.8737 292.271 19.735C292.645 20.585 293.019 21.486 293.393 22.438C293.778 23.39 294.169 24.4043 294.566 25.481C294.962 26.5577 295.382 27.7307 295.824 29H292.985ZM289.806 19.888C289.749 20.058 289.664 20.2903 289.551 20.585C289.437 20.8797 289.307 21.2197 289.16 21.605C289.012 21.9903 288.848 22.4153 288.667 22.88C288.497 23.3447 288.321 23.832 288.14 24.342H291.489C291.307 23.832 291.132 23.3447 290.962 22.88C290.792 22.4153 290.627 21.9903 290.469 21.605C290.321 21.2197 290.191 20.8797 290.078 20.585C289.964 20.2903 289.874 20.058 289.806 19.888ZM289.313 12.697L291.727 15.451L290.571 16.488L287.766 14.125L289.313 12.697Z" fill="white"/>
</svg>
