<svg width="279" height="75" viewBox="0 0 279 75" fill="none" xmlns="http://www.w3.org/2000/svg">
<rect width="279" height="75" rx="37.5" fill="#FF4768"/>
<rect width="279" height="75" rx="37.5" fill="url(#paint0_radial)" fill-opacity="0.7"/>
<rect width="279" height="75" rx="37.5" fill="url(#paint1_radial)"/>
<g filter="url(#filter0_d)">
<path d="M82.86 30.8V44H79.04L74.94 36.86L73.94 34.9H73.92L74 37.34V44H70.96V30.8H74.78L78.88 37.94L79.88 39.9H79.9L79.82 37.46V30.8H82.86ZM85.1052 44V29.76H88.5052V35.82C88.7985 35.1533 89.2185 34.6533 89.7652 34.32C90.3118 33.9733 90.9452 33.8 91.6652 33.8C92.6918 33.8 93.5252 34.1 94.1652 34.7C94.8052 35.3 95.1252 36.18 95.1252 37.34V44H91.7252V38.28C91.7252 37.56 91.5918 37.0667 91.3252 36.8C91.0718 36.52 90.7318 36.38 90.3052 36.38C89.8252 36.38 89.4052 36.5667 89.0452 36.94C88.6852 37.3 88.5052 37.9 88.5052 38.74V44H85.1052ZM102.688 37.66C102.688 37.1933 102.554 36.8267 102.288 36.56C102.034 36.28 101.688 36.14 101.248 36.14C100.808 36.14 100.428 36.2533 100.108 36.48C99.8008 36.6933 99.5875 37.08 99.4675 37.64L96.5875 36.96C96.7742 36 97.2675 35.2333 98.0675 34.66C98.8675 34.0867 99.9942 33.8 101.448 33.8C102.914 33.8 104.048 34.1267 104.848 34.78C105.661 35.42 106.068 36.36 106.068 37.6V41.26C106.068 41.78 106.301 42.04 106.768 42.04C107.008 42.04 107.201 42.0133 107.348 41.96L107.148 43.9C106.748 44.0867 106.261 44.18 105.688 44.18C105.061 44.18 104.521 44.06 104.068 43.82C103.614 43.5667 103.308 43.1867 103.148 42.68C102.868 43.2 102.421 43.5867 101.808 43.84C101.208 44.08 100.568 44.2 99.8875 44.2C98.8608 44.2 98.0408 43.9667 97.4275 43.5C96.8275 43.02 96.5275 42.3333 96.5275 41.44C96.5275 40.72 96.7408 40.1267 97.1675 39.66C97.6075 39.18 98.2942 38.8467 99.2275 38.66L102.688 37.94V37.66ZM99.8875 41.12C99.8875 41.4133 99.9942 41.6333 100.208 41.78C100.421 41.9267 100.674 42 100.968 42C101.421 42 101.821 41.8667 102.168 41.6C102.514 41.32 102.688 40.8867 102.688 40.3V39.74L101.068 40.08C100.668 40.16 100.368 40.28 100.168 40.44C99.9808 40.5867 99.8875 40.8133 99.8875 41.12ZM101.508 48.44C100.294 48.44 99.6875 47.9067 99.6875 46.84C99.6875 45.76 100.294 45.22 101.508 45.22C102.748 45.22 103.368 45.76 103.368 46.84C103.368 47.9067 102.748 48.44 101.508 48.44ZM105.248 32.82H102.808L101.428 31.06L100.048 32.82H97.6075L99.7875 29.36H103.068L105.248 32.82ZM108.29 44V34H111.33L111.43 36.02C111.736 35.2867 112.183 34.7333 112.77 34.36C113.356 33.9867 114.05 33.8 114.85 33.8C115.876 33.8 116.71 34.1 117.35 34.7C117.99 35.3 118.31 36.18 118.31 37.34V44H114.91V38.24C114.91 37.5467 114.776 37.0667 114.51 36.8C114.243 36.5333 113.903 36.4 113.49 36.4C112.996 36.4 112.57 36.5733 112.21 36.92C111.863 37.2667 111.69 37.86 111.69 38.7V44H108.29ZM132.315 48.2V42.3C132.048 42.8867 131.655 43.3533 131.135 43.7C130.615 44.0333 130.001 44.2 129.295 44.2C128.068 44.2 127.075 43.74 126.315 42.82C125.555 41.9 125.175 40.6133 125.175 38.96C125.175 37.32 125.561 36.0533 126.335 35.16C127.108 34.2533 128.115 33.8 129.355 33.8C130.101 33.8 130.748 34 131.295 34.4C131.855 34.7867 132.275 35.3067 132.555 35.96L132.655 34H135.715V48.2H132.315ZM130.475 41.7C131.048 41.7 131.495 41.46 131.815 40.98C132.148 40.5 132.315 39.8333 132.315 38.98C132.315 38.0867 132.148 37.42 131.815 36.98C131.495 36.5267 131.055 36.3 130.495 36.3C129.908 36.3 129.441 36.52 129.095 36.96C128.761 37.3867 128.595 38.0667 128.595 39C128.595 39.9333 128.761 40.62 129.095 41.06C129.428 41.4867 129.888 41.7 130.475 41.7ZM141.134 44.2C140.12 44.2 139.294 43.9267 138.654 43.38C138.014 42.8333 137.694 41.9333 137.694 40.68V34H141.094V39.88C141.094 40.52 141.22 40.9667 141.474 41.22C141.727 41.4733 142.087 41.6 142.554 41.6C143.034 41.6 143.44 41.4267 143.774 41.08C144.12 40.72 144.294 40.1467 144.294 39.36V34H147.694V44H144.654L144.554 42.12C144.234 42.8267 143.787 43.3533 143.214 43.7C142.64 44.0333 141.947 44.2 141.134 44.2ZM155.316 37.66C155.316 37.1933 155.183 36.8267 154.916 36.56C154.663 36.28 154.316 36.14 153.876 36.14C153.436 36.14 153.056 36.2533 152.736 36.48C152.43 36.6933 152.216 37.08 152.096 37.64L149.216 36.96C149.403 36 149.896 35.2333 150.696 34.66C151.496 34.0867 152.623 33.8 154.076 33.8C155.543 33.8 156.676 34.1267 157.476 34.78C158.29 35.42 158.696 36.36 158.696 37.6V41.26C158.696 41.78 158.93 42.04 159.396 42.04C159.636 42.04 159.83 42.0133 159.976 41.96L159.776 43.9C159.376 44.0867 158.89 44.18 158.316 44.18C157.69 44.18 157.15 44.06 156.696 43.82C156.243 43.5667 155.936 43.1867 155.776 42.68C155.496 43.2 155.05 43.5867 154.436 43.84C153.836 44.08 153.196 44.2 152.516 44.2C151.49 44.2 150.67 43.9667 150.056 43.5C149.456 43.02 149.156 42.3333 149.156 41.44C149.156 40.72 149.37 40.1267 149.796 39.66C150.236 39.18 150.923 38.8467 151.856 38.66L155.316 37.94V37.66ZM152.516 41.12C152.516 41.4133 152.623 41.6333 152.836 41.78C153.05 41.9267 153.303 42 153.596 42C154.05 42 154.45 41.8667 154.796 41.6C155.143 41.32 155.316 40.8867 155.316 40.3V39.74L153.696 40.08C153.296 40.16 152.996 40.28 152.796 40.44C152.61 40.5867 152.516 40.8133 152.516 41.12ZM154.056 29.24L155.396 32.7H152.916L150.896 29.24H154.056ZM166.065 44V34H169.105L169.205 36.02C169.512 35.2867 169.959 34.7333 170.545 34.36C171.132 33.9867 171.825 33.8 172.625 33.8C173.652 33.8 174.485 34.1 175.125 34.7C175.765 35.3 176.085 36.18 176.085 37.34V44H172.685V38.24C172.685 37.5467 172.552 37.0667 172.285 36.8C172.019 36.5333 171.679 36.4 171.265 36.4C170.772 36.4 170.345 36.5733 169.985 36.92C169.639 37.2667 169.465 37.86 169.465 38.7V44H166.065ZM184.308 41.78C185.468 41.78 186.354 42.0267 186.968 42.52C187.594 43 187.908 43.6933 187.908 44.6C187.908 45.8533 187.408 46.78 186.408 47.38C185.421 47.9933 184.088 48.3 182.408 48.3C180.594 48.3 179.288 48.0733 178.488 47.62C177.688 47.1667 177.288 46.5533 177.288 45.78C177.288 45.3267 177.434 44.94 177.728 44.62C178.034 44.3 178.521 44.08 179.188 43.96C178.214 43.6 177.728 42.9267 177.728 41.94C177.728 41.4733 177.868 41.0667 178.148 40.72C178.428 40.36 178.814 40.1 179.308 39.94C178.241 39.3533 177.708 38.44 177.708 37.2C177.708 36.12 178.128 35.2867 178.968 34.7C179.821 34.1 181.014 33.8 182.548 33.8C183.321 33.8 184.021 33.88 184.648 34.04C184.701 33.56 184.834 33.1133 185.048 32.7C185.274 32.2867 185.581 31.9533 185.968 31.7C186.368 31.4333 186.854 31.3 187.428 31.3C187.468 31.3 187.514 31.3067 187.568 31.32C187.621 31.32 187.681 31.32 187.748 31.32L188.028 33.6C187.881 33.56 187.721 33.54 187.548 33.54C187.081 33.54 186.708 33.6333 186.428 33.82C186.148 34.0067 185.961 34.2467 185.868 34.54C186.868 35.1267 187.368 36.0133 187.368 37.2C187.368 38.28 186.941 39.1133 186.088 39.7C185.248 40.2867 184.068 40.58 182.548 40.58C181.854 40.58 181.228 40.52 180.668 40.4C180.228 40.5333 180.008 40.7667 180.008 41.1C180.008 41.5533 180.381 41.78 181.128 41.78H184.308ZM182.548 35.74C182.108 35.74 181.748 35.8667 181.468 36.12C181.201 36.3733 181.068 36.7333 181.068 37.2C181.068 37.6533 181.201 38.0067 181.468 38.26C181.748 38.5133 182.108 38.64 182.548 38.64C182.974 38.64 183.328 38.5133 183.608 38.26C183.888 38.0067 184.028 37.6533 184.028 37.2C184.028 36.7333 183.888 36.3733 183.608 36.12C183.328 35.8667 182.974 35.74 182.548 35.74ZM182.428 46.1C183.388 46.1 184.101 46 184.568 45.8C185.048 45.6133 185.288 45.3733 185.288 45.08C185.288 44.88 185.208 44.72 185.048 44.6C184.901 44.4933 184.641 44.44 184.268 44.44H180.688C180.434 44.44 180.228 44.5067 180.068 44.64C179.921 44.7733 179.848 44.94 179.848 45.14C179.848 45.4467 180.074 45.68 180.528 45.84C180.981 46.0133 181.614 46.1 182.428 46.1ZM194.439 37.66C194.439 37.1933 194.306 36.8267 194.039 36.56C193.786 36.28 193.439 36.14 192.999 36.14C192.559 36.14 192.179 36.2533 191.859 36.48C191.552 36.6933 191.339 37.08 191.219 37.64L188.339 36.96C188.526 36 189.019 35.2333 189.819 34.66C190.619 34.0867 191.746 33.8 193.199 33.8C194.666 33.8 195.799 34.1267 196.599 34.78C197.412 35.42 197.819 36.36 197.819 37.6V41.26C197.819 41.78 198.052 42.04 198.519 42.04C198.759 42.04 198.952 42.0133 199.099 41.96L198.899 43.9C198.499 44.0867 198.012 44.18 197.439 44.18C196.812 44.18 196.272 44.06 195.819 43.82C195.366 43.5667 195.059 43.1867 194.899 42.68C194.619 43.2 194.172 43.5867 193.559 43.84C192.959 44.08 192.319 44.2 191.639 44.2C190.612 44.2 189.792 43.9667 189.179 43.5C188.579 43.02 188.279 42.3333 188.279 41.44C188.279 40.72 188.492 40.1267 188.919 39.66C189.359 39.18 190.046 38.8467 190.979 38.66L194.439 37.94V37.66ZM191.639 41.12C191.639 41.4133 191.746 41.6333 191.959 41.78C192.172 41.9267 192.426 42 192.719 42C193.172 42 193.572 41.8667 193.919 41.6C194.266 41.32 194.439 40.8867 194.439 40.3V39.74L192.819 40.08C192.419 40.16 192.119 40.28 191.919 40.44C191.732 40.5867 191.639 40.8133 191.639 41.12ZM209.457 34L205.817 44C205.443 45.0533 205.037 45.8933 204.597 46.52C204.157 47.16 203.637 47.6133 203.037 47.88C202.437 48.16 201.717 48.3 200.877 48.3C200.303 48.3 199.783 48.24 199.317 48.12C198.863 48 198.463 47.8333 198.117 47.62L198.797 45.32C199.037 45.4933 199.29 45.6133 199.557 45.68C199.823 45.76 200.163 45.8 200.577 45.8C200.963 45.8 201.277 45.7333 201.517 45.6C201.77 45.48 201.97 45.2267 202.117 44.84L202.377 44.22L201.217 41.5L198.217 34H201.957L203.497 39.7L203.977 41.82L204.537 39.62L206.077 34H209.457Z" fill="white"/>
</g>
<defs>
<filter id="filter0_d" x="70.96" y="29.2402" width="140.497" height="21.2" filterUnits="userSpaceOnUse" color-interpolation-filters="sRGB">
<feFlood flood-opacity="0" result="BackgroundImageFix"/>
<feColorMatrix in="SourceAlpha" type="matrix" values="0 0 0 0 0 0 0 0 0 0 0 0 0 0 0 0 0 0 127 0" result="hardAlpha"/>
<feOffset dx="1" dy="1"/>
<feGaussianBlur stdDeviation="0.5"/>
<feColorMatrix type="matrix" values="0 0 0 0 0 0 0 0 0 0 0 0 0 0 0 0 0 0 0.25 0"/>
<feBlend mode="normal" in2="BackgroundImageFix" result="effect1_dropShadow"/>
<feBlend mode="normal" in="SourceGraphic" in2="effect1_dropShadow" result="shape"/>
</filter>
<radialGradient id="paint0_radial" cx="0" cy="0" r="1" gradientUnits="userSpaceOnUse" gradientTransform="translate(73.625 15.625) rotate(18.3912) scale(155.176 95.0225)">
<stop stop-color="white" stop-opacity="0.59"/>
<stop offset="0.697917" stop-color="white" stop-opacity="0"/>
<stop offset="1" stop-color="white" stop-opacity="0"/>
</radialGradient>
<radialGradient id="paint1_radial" cx="0" cy="0" r="1" gradientUnits="userSpaceOnUse" gradientTransform="translate(240.781 65.625) rotate(-103.422) scale(65.8613 259.418)">
<stop stop-opacity="0.23"/>
<stop offset="0.861815" stop-opacity="0"/>
</radialGradient>
</defs>
</svg>
