<svg width="313" height="68" viewBox="0 0 313 68" fill="none" xmlns="http://www.w3.org/2000/svg">
<rect width="313" height="68" rx="14" fill="#314691"/>
<path d="M73.6862 40.238C71.7709 40.238 70.3089 39.7053 69.3002 38.64C68.3029 37.5747 67.8042 36.0617 67.8042 34.101C67.8042 33.1263 67.9572 32.2593 68.2632 31.5C68.5692 30.7293 68.9886 30.0833 69.5212 29.562C70.0539 29.0293 70.6886 28.627 71.4252 28.355C72.1619 28.083 72.9609 27.947 73.8222 27.947C74.3209 27.947 74.7742 27.9867 75.1822 28.066C75.5902 28.134 75.9472 28.219 76.2532 28.321C76.5592 28.4117 76.8142 28.508 77.0182 28.61C77.2222 28.712 77.3696 28.7913 77.4602 28.848L76.6952 30.99C76.3326 30.7973 75.9076 30.633 75.4202 30.497C74.9442 30.361 74.4002 30.293 73.7882 30.293C73.3802 30.293 72.9779 30.361 72.5812 30.497C72.1959 30.633 71.8502 30.854 71.5442 31.16C71.2496 31.4547 71.0116 31.84 70.8302 32.316C70.6489 32.792 70.5582 33.37 70.5582 34.05C70.5582 34.594 70.6149 35.104 70.7282 35.58C70.8529 36.0447 71.0456 36.447 71.3062 36.787C71.5782 37.127 71.9296 37.399 72.3602 37.603C72.7909 37.7957 73.3122 37.892 73.9242 37.892C74.3096 37.892 74.6552 37.8693 74.9612 37.824C75.2672 37.7787 75.5392 37.7277 75.7772 37.671C76.0152 37.603 76.2249 37.5293 76.4062 37.45C76.5876 37.3707 76.7519 37.297 76.8992 37.229L77.6302 39.354C77.2562 39.5807 76.7292 39.7847 76.0492 39.966C75.3692 40.1473 74.5816 40.238 73.6862 40.238ZM86.0357 28.219H88.6877V40H86.0357V35.002H81.5817V40H78.9297V28.219H81.5817V32.724H86.0357V28.219ZM91.006 28.219H93.658V40H91.006V28.219ZM103.865 40C103.74 39.592 103.599 39.1727 103.44 38.742C103.293 38.3113 103.145 37.8807 102.998 37.45H98.4079C98.2606 37.8807 98.1076 38.3113 97.9489 38.742C97.8016 39.1727 97.6656 39.592 97.5409 40H94.7869C95.2289 38.7307 95.6483 37.5577 96.0449 36.481C96.4416 35.4043 96.8269 34.39 97.2009 33.438C97.5863 32.486 97.9603 31.585 98.3229 30.735C98.6969 29.8737 99.0823 29.035 99.4789 28.219H102.012C102.397 29.035 102.777 29.8737 103.151 30.735C103.525 31.585 103.899 32.486 104.273 33.438C104.658 34.39 105.049 35.4043 105.446 36.481C105.843 37.5577 106.262 38.7307 106.704 40H103.865ZM100.686 30.888C100.629 31.058 100.544 31.2903 100.431 31.585C100.318 31.8797 100.187 32.2197 100.04 32.605C99.8926 32.9903 99.7283 33.4153 99.5469 33.88C99.3769 34.3447 99.2013 34.832 99.0199 35.342H102.369C102.188 34.832 102.012 34.3447 101.842 33.88C101.672 33.4153 101.508 32.9903 101.349 32.605C101.202 32.2197 101.071 31.8797 100.958 31.585C100.845 31.2903 100.754 31.058 100.686 30.888ZM114.71 37.977C115.084 37.977 115.39 37.9487 115.628 37.892C115.877 37.824 116.076 37.739 116.223 37.637C116.37 37.5237 116.472 37.3933 116.529 37.246C116.586 37.0987 116.614 36.9343 116.614 36.753C116.614 36.3677 116.433 36.0503 116.07 35.801C115.707 35.5403 115.084 35.2627 114.2 34.968C113.815 34.832 113.429 34.679 113.044 34.509C112.659 34.3277 112.313 34.1067 112.007 33.846C111.701 33.574 111.452 33.251 111.259 32.877C111.066 32.4917 110.97 32.027 110.97 31.483C110.97 30.939 111.072 30.4517 111.276 30.021C111.48 29.579 111.769 29.205 112.143 28.899C112.517 28.593 112.97 28.3607 113.503 28.202C114.036 28.032 114.636 27.947 115.305 27.947C116.098 27.947 116.784 28.032 117.362 28.202C117.94 28.372 118.416 28.559 118.79 28.763L118.025 30.854C117.696 30.684 117.328 30.5367 116.92 30.412C116.523 30.276 116.042 30.208 115.475 30.208C114.84 30.208 114.381 30.2987 114.098 30.48C113.826 30.65 113.69 30.9163 113.69 31.279C113.69 31.4943 113.741 31.6757 113.843 31.823C113.945 31.9703 114.087 32.1063 114.268 32.231C114.461 32.3443 114.676 32.452 114.914 32.554C115.163 32.6447 115.435 32.741 115.73 32.843C116.342 33.0697 116.875 33.2963 117.328 33.523C117.781 33.7383 118.155 33.9933 118.45 34.288C118.756 34.5827 118.983 34.9283 119.13 35.325C119.277 35.7217 119.351 36.2033 119.351 36.77C119.351 37.8693 118.966 38.725 118.195 39.337C117.424 39.9377 116.263 40.238 114.71 40.238C114.189 40.238 113.718 40.204 113.299 40.136C112.88 40.0793 112.506 40.0057 112.177 39.915C111.86 39.8243 111.582 39.728 111.344 39.626C111.117 39.524 110.925 39.4277 110.766 39.337L111.514 37.229C111.865 37.4217 112.296 37.5973 112.806 37.756C113.327 37.9033 113.962 37.977 114.71 37.977ZM128.14 40H121.151V27.8643H128.14V29.9727H123.724V32.6372H127.833V34.7456H123.724V37.875H128.14V40ZM126.837 24.8511C126.837 25.7144 126.389 26.2594 125.492 26.4863L125.409 27.0757H123.965L123.774 25.8555C124.189 25.7891 124.471 25.6867 124.62 25.5483C124.77 25.4045 124.845 25.2301 124.845 25.0254C124.845 24.8483 124.786 24.7127 124.67 24.6187C124.554 24.5246 124.402 24.4775 124.214 24.4775C123.854 24.4775 123.469 24.5412 123.06 24.6685V23.2739C123.226 23.2186 123.453 23.1743 123.741 23.1411C124.034 23.1024 124.294 23.083 124.521 23.083C125.296 23.083 125.874 23.238 126.256 23.5479C126.643 23.8522 126.837 24.2866 126.837 24.8511ZM136.62 37.841C136.744 37.8523 136.886 37.8637 137.045 37.875C137.215 37.875 137.413 37.875 137.64 37.875C138.966 37.875 139.946 37.5407 140.581 36.872C141.227 36.2033 141.55 35.2797 141.55 34.101C141.55 32.8657 141.244 31.9307 140.632 31.296C140.02 30.6613 139.051 30.344 137.725 30.344C137.543 30.344 137.356 30.3497 137.164 30.361C136.971 30.361 136.79 30.3723 136.62 30.395V32.911H138.762V34.866H136.62V37.841ZM144.287 34.101C144.287 35.121 144.128 36.0107 143.811 36.77C143.493 37.5293 143.04 38.1583 142.451 38.657C141.873 39.1557 141.164 39.5297 140.326 39.779C139.487 40.0283 138.546 40.153 137.504 40.153C137.028 40.153 136.472 40.1303 135.838 40.085C135.203 40.051 134.58 39.9717 133.968 39.847V34.866H132.591V32.911H133.968V28.372C134.58 28.2587 135.214 28.185 135.872 28.151C136.54 28.1057 137.113 28.083 137.589 28.083C138.597 28.083 139.51 28.1963 140.326 28.423C141.153 28.6497 141.861 29.0067 142.451 29.494C143.04 29.9813 143.493 30.6047 143.811 31.364C144.128 32.1233 144.287 33.0357 144.287 34.101ZM153.246 40H146.257V27.8643H153.246V29.9727H148.83V32.6372H152.939V34.7456H148.83V37.875H153.246V40ZM154.516 23.6475C154.516 24.2783 154.17 24.6629 153.479 24.8013L153.429 25.3076H152.375L152.292 24.3447C152.596 24.3337 152.839 24.2866 153.022 24.2036C153.205 24.1151 153.296 23.9906 153.296 23.8301C153.296 23.7139 153.243 23.6143 153.138 23.5312C153.039 23.4482 152.87 23.4067 152.632 23.4067C152.438 23.4067 152.239 23.4344 152.034 23.4897V22.4355C152.156 22.4023 152.41 22.3857 152.798 22.3857C153.318 22.3857 153.733 22.4854 154.043 22.6846C154.358 22.8838 154.516 23.2048 154.516 23.6475ZM152.856 26.8931H151.511C150.891 26.478 150.308 26.0187 149.76 25.5151C149.129 26.0741 148.545 26.5334 148.008 26.8931H146.664V26.6689C147.283 25.9495 147.878 25.1748 148.448 24.3447H151.063C151.356 24.7764 151.688 25.2301 152.059 25.7061C152.435 26.1764 152.701 26.4974 152.856 26.6689V26.8931ZM166.792 40C166.032 38.6513 165.211 37.3197 164.327 36.005C163.443 34.6903 162.502 33.4493 161.505 32.282V40H158.887V28.219H161.046C161.42 28.593 161.833 29.052 162.287 29.596C162.74 30.14 163.199 30.7237 163.664 31.347C164.14 31.959 164.61 32.5993 165.075 33.268C165.539 33.9253 165.976 34.56 166.384 35.172V28.219H169.019V40H166.792ZM178.434 28.219H181.086V40H178.434V35.002H173.98V40H171.328V28.219H173.98V32.724H178.434V28.219ZM191.001 40L190.121 37.1113H185.697L184.817 40H182.045L186.328 27.8145H189.474L193.774 40H191.001ZM189.507 34.9531C188.694 32.3356 188.234 30.8553 188.129 30.5122C188.03 30.1691 187.958 29.8979 187.913 29.6987C187.731 30.4071 187.208 32.1585 186.345 34.9531H189.507ZM189.847 26.8931C188.979 26.3784 188.331 25.8914 187.905 25.4321C187.473 25.8804 186.84 26.3674 186.004 26.8931H184.319V26.6689C185.365 25.623 186.073 24.7902 186.444 24.1704H189.408C189.579 24.4582 189.875 24.8511 190.296 25.3491C190.722 25.8416 191.134 26.2816 191.533 26.6689V26.8931H189.847ZM186.535 42.3325C186.535 41.5024 186.995 41.0874 187.913 41.0874C188.832 41.0874 189.291 41.5024 189.291 42.3325C189.291 42.7254 189.175 43.0298 188.943 43.2456C188.71 43.4614 188.367 43.5693 187.913 43.5693C186.995 43.5693 186.535 43.1571 186.535 42.3325ZM202.639 40C201.88 38.6513 201.058 37.3197 200.174 36.005C199.29 34.6903 198.349 33.4493 197.352 32.282V40H194.734V28.219H196.893C197.267 28.593 197.681 29.052 198.134 29.596C198.587 30.14 199.046 30.7237 199.511 31.347C199.987 31.959 200.457 32.5993 200.922 33.268C201.387 33.9253 201.823 34.56 202.231 35.172V28.219H204.866V40H202.639ZM213.079 34.101C213.079 34.679 213.147 35.2003 213.283 35.665C213.43 36.1297 213.634 36.532 213.895 36.872C214.167 37.2007 214.495 37.4557 214.881 37.637C215.266 37.8183 215.708 37.909 216.207 37.909C216.694 37.909 217.13 37.8183 217.516 37.637C217.912 37.4557 218.241 37.2007 218.502 36.872C218.774 36.532 218.978 36.1297 219.114 35.665C219.261 35.2003 219.335 34.679 219.335 34.101C219.335 33.523 219.261 33.0017 219.114 32.537C218.978 32.061 218.774 31.6587 218.502 31.33C218.241 30.99 217.912 30.7293 217.516 30.548C217.13 30.3667 216.694 30.276 216.207 30.276C215.708 30.276 215.266 30.3723 214.881 30.565C214.495 30.7463 214.167 31.007 213.895 31.347C213.634 31.6757 213.43 32.078 213.283 32.554C213.147 33.0187 213.079 33.5343 213.079 34.101ZM222.072 34.101C222.072 34.9283 221.97 35.6763 221.766 36.345C221.562 37.0023 221.273 37.5803 220.899 38.079C220.536 38.5777 220.1 38.9913 219.59 39.32C219.08 39.6487 218.519 39.8867 217.907 40.034C217.963 40.2607 218.088 40.442 218.281 40.578C218.473 40.7253 218.717 40.8443 219.012 40.935C219.306 41.0257 219.646 41.0937 220.032 41.139C220.428 41.1843 220.853 41.224 221.307 41.258L220.763 43.196C219.879 43.162 219.119 43.0713 218.485 42.924C217.861 42.788 217.329 42.5953 216.887 42.346C216.456 42.0967 216.11 41.7907 215.85 41.428C215.6 41.0653 215.408 40.646 215.272 40.17C214.569 40.0793 213.917 39.8867 213.317 39.592C212.716 39.286 212.195 38.878 211.753 38.368C211.311 37.858 210.965 37.246 210.716 36.532C210.466 35.818 210.342 35.0077 210.342 34.101C210.342 33.0923 210.5 32.2083 210.818 31.449C211.135 30.6783 211.56 30.0323 212.093 29.511C212.637 28.9897 213.26 28.5987 213.963 28.338C214.677 28.0773 215.425 27.947 216.207 27.947C217.011 27.947 217.771 28.0773 218.485 28.338C219.199 28.5987 219.822 28.9897 220.355 29.511C220.887 30.0323 221.307 30.6783 221.613 31.449C221.919 32.2083 222.072 33.0923 222.072 34.101ZM228.481 40.238C227.654 40.238 226.94 40.1247 226.339 39.898C225.739 39.66 225.24 39.337 224.843 38.929C224.458 38.5097 224.169 38.0167 223.976 37.45C223.795 36.872 223.704 36.2373 223.704 35.546V28.219H226.356V35.325C226.356 35.801 226.407 36.209 226.509 36.549C226.623 36.8777 226.77 37.1497 226.951 37.365C227.144 37.569 227.371 37.7163 227.631 37.807C227.903 37.8977 228.198 37.943 228.515 37.943C229.161 37.943 229.683 37.7447 230.079 37.348C230.487 36.9513 230.691 36.277 230.691 35.325V28.219H233.343V35.546C233.343 36.2373 233.247 36.872 233.054 37.45C232.862 38.028 232.567 38.5267 232.17 38.946C231.774 39.354 231.269 39.6713 230.657 39.898C230.045 40.1247 229.32 40.238 228.481 40.238ZM243.042 40C242.917 39.592 242.775 39.1727 242.617 38.742C242.469 38.3113 242.322 37.8807 242.175 37.45H237.585C237.437 37.8807 237.284 38.3113 237.126 38.742C236.978 39.1727 236.842 39.592 236.718 40H233.964C234.406 38.7307 234.825 37.5577 235.222 36.481C235.618 35.4043 236.004 34.39 236.378 33.438C236.763 32.486 237.137 31.585 237.5 30.735C237.874 29.8737 238.259 29.035 238.656 28.219H241.189C241.574 29.035 241.954 29.8737 242.328 30.735C242.702 31.585 243.076 32.486 243.45 33.438C243.835 34.39 244.226 35.4043 244.623 36.481C245.019 37.5577 245.439 38.7307 245.881 40H243.042ZM239.863 30.888C239.806 31.058 239.721 31.2903 239.608 31.585C239.494 31.8797 239.364 32.2197 239.217 32.605C239.069 32.9903 238.905 33.4153 238.724 33.88C238.554 34.3447 238.378 34.832 238.197 35.342H241.546C241.364 34.832 241.189 34.3447 241.019 33.88C240.849 33.4153 240.684 32.9903 240.526 32.605C240.378 32.2197 240.248 31.8797 240.135 31.585C240.021 31.2903 239.931 31.058 239.863 30.888ZM239.37 23.697L241.784 26.451L240.628 27.488L237.823 25.125L239.37 23.697Z" fill="white"/>
</svg>
